<?xml version="1.0" standalone="no"?>
<!DOCTYPE svg PUBLIC "-//W3C//DTD SVG 20010904//EN"
 "http://www.w3.org/TR/2001/REC-SVG-20010904/DTD/svg10.dtd">
<svg version="1.0" xmlns="http://www.w3.org/2000/svg"
 width="360.000000pt" height="360.000000pt" viewBox="0 0 360.000000 360.000000"
 preserveAspectRatio="xMidYMid meet">

<g transform="translate(0.000000,360.000000) scale(0.100000,-0.100000)"
fill="#000000" stroke="none">
<path d="M1675 3267 c-87 -42 -153 -137 -143 -207 l3 -25 263 -3 c291 -3 280
-5 268 62 -10 53 -65 127 -120 161 -43 26 -60 30 -135 33 -74 2 -93 -1 -136
-21z m243 -29 c47 -22 88 -66 109 -115 27 -66 38 -63 -227 -63 -235 0 -240 0
-240 20 0 47 59 128 113 157 70 36 168 36 245 1z"/>
<path d="M1654 3210 c-39 -25 -70 -80 -60 -106 7 -16 10 -14 24 16 10 19 36
48 59 65 23 16 42 33 42 38 2 14 -34 7 -65 -13z"/>
<path d="M971 3063 l-122 -178 3 -55 3 -55 113 -3 112 -3 0 -54 0 -55 75 0 75
0 0 54 c0 54 0 55 33 58 32 3 32 3 32 58 0 53 -1 55 -30 60 l-30 5 -3 173 -2
172 -69 0 -69 0 -121 -177z m106 -170 c-3 -2 -24 -3 -46 -1 l-42 3 43 68 43
67 3 -66 c2 -37 1 -68 -1 -71z"/>
<path d="M2422 3060 c-123 -180 -123 -181 -120 -233 l3 -52 113 -3 112 -3 0
-54 0 -55 74 0 75 0 3 52 c3 50 5 53 33 58 29 5 30 7 30 60 0 53 -1 55 -30 60
l-30 5 -3 173 -2 172 -68 0 -68 0 -122 -180z m108 -100 l0 -70 -40 0 c-22 0
-40 4 -40 10 0 8 72 128 78 130 1 0 2 -31 2 -70z"/>
<path d="M1573 2983 c-18 -9 -33 -23 -33 -30 0 -17 14 -16 50 2 27 14 32 14
56 -1 24 -16 28 -16 60 -1 32 16 38 16 64 2 27 -14 33 -14 60 0 27 14 33 14
61 -1 28 -14 34 -14 62 -1 27 14 34 14 59 1 27 -14 48 -12 48 5 0 4 -17 16
-39 25 -35 16 -41 16 -67 3 -25 -13 -32 -13 -60 0 -27 14 -34 14 -59 0 -25
-13 -33 -13 -64 0 -31 13 -39 13 -66 0 -26 -13 -35 -13 -56 -1 -30 17 -36 16
-76 -3z"/>
<path d="M1543 2898 c3 -10 62 -13 252 -13 190 0 249 3 253 13 3 9 -52 12
-253 12 -201 0 -256 -3 -252 -12z"/>
<path d="M1542 2838 c7 -19 38 -22 38 -4 0 10 -9 16 -21 16 -12 0 -19 -5 -17
-12z"/>
<path d="M1600 2835 c0 -9 9 -15 25 -15 16 0 25 6 25 15 0 9 -9 15 -25 15 -16
0 -25 -6 -25 -15z"/>
<path d="M1670 2835 c0 -9 9 -15 25 -15 16 0 25 6 25 15 0 9 -9 15 -25 15 -16
0 -25 -6 -25 -15z"/>
<path d="M1740 2835 c0 -9 9 -15 25 -15 16 0 25 6 25 15 0 9 -9 15 -25 15 -16
0 -25 -6 -25 -15z"/>
<path d="M1810 2835 c0 -9 9 -15 25 -15 16 0 25 6 25 15 0 9 -9 15 -25 15 -16
0 -25 -6 -25 -15z"/>
<path d="M1880 2835 c0 -9 9 -15 25 -15 16 0 25 6 25 15 0 9 -9 15 -25 15 -16
0 -25 -6 -25 -15z"/>
<path d="M1950 2835 c0 -9 9 -15 25 -15 16 0 25 6 25 15 0 9 -9 15 -25 15 -16
0 -25 -6 -25 -15z"/>
<path d="M2020 2834 c0 -9 7 -14 17 -12 25 5 28 28 4 28 -12 0 -21 -6 -21 -16z"/>
<path d="M1542 2778 c-7 -7 -12 -33 -12 -60 0 -37 4 -50 19 -58 12 -6 112 -10
254 -10 263 0 267 1 267 73 0 66 -3 67 -274 67 -175 0 -245 -3 -254 -12z m487
-22 c7 -8 11 -27 9 -43 l-3 -28 -230 -3 c-207 -2 -231 -1 -242 15 -17 22 -16
38 3 57 22 23 445 24 463 2z"/>
<path d="M1539 2040 c-23 -14 -45 -68 -32 -81 18 -18 103 38 103 67 0 22 -43
31 -71 14z"/>
<path d="M1180 1898 c-45 -31 -90 -107 -129 -222 -41 -119 -39 -140 12 -144
46 -4 64 9 72 51 13 65 14 66 49 60 69 -11 129 52 143 152 14 106 -62 160
-147 103z m50 -108 c0 -29 -26 -76 -45 -84 -9 -3 -15 -3 -13 2 1 4 11 28 22
55 20 49 36 61 36 27z"/>
<path d="M1983 1892 c-17 -15 -40 -48 -51 -72 -37 -87 -84 -241 -79 -260 3
-11 -3 -26 -14 -36 -37 -33 -16 -66 25 -39 16 11 26 13 31 6 11 -19 51 -12 75
14 27 29 19 46 -12 26 -27 -17 -50 2 -26 21 21 17 123 330 115 351 -9 24 -27
21 -64 -11z"/>
<path d="M1444 1864 c-45 -48 -137 -216 -149 -272 -13 -61 36 -84 74 -36 20
26 63 54 82 54 5 0 8 -14 7 -31 -2 -24 2 -33 19 -39 40 -16 51 7 78 161 24
136 24 147 9 177 -24 50 -66 45 -120 -14z m29 -131 c-9 -61 -14 -73 -29 -73
-9 0 -14 6 -11 13 2 6 10 29 18 50 15 43 28 49 22 10z"/>
<path d="M1710 1894 c-78 -34 -139 -126 -147 -223 -6 -74 8 -108 53 -127 93
-39 234 47 234 143 0 43 -33 58 -90 43 -51 -14 -58 -36 -19 -59 31 -19 31 -19
10 -31 -12 -6 -36 -10 -54 -8 -27 2 -33 8 -35 31 -8 65 101 165 122 112 3 -8
16 -15 29 -15 56 0 77 81 32 125 -28 29 -81 33 -135 9z"/>
<path d="M2477 1895 c-33 -32 -85 -102 -112 -148 -42 -73 -76 -177 -64 -199
14 -26 44 -22 71 10 19 22 66 52 83 52 3 0 5 -15 5 -34 0 -36 15 -47 52 -38
18 4 25 31 53 198 22 131 14 168 -37 172 -22 2 -41 -3 -51 -13z m-5 -185 c-7
-40 -32 -70 -32 -37 0 19 30 90 35 85 3 -2 1 -24 -3 -48z"/>
<path d="M2264 1878 c-11 -13 -29 -43 -39 -66 l-19 -44 -17 52 c-19 60 -32 75
-53 67 -35 -14 -90 -149 -115 -279 -17 -94 50 -83 93 15 l23 51 7 -43 c13 -81
40 -101 85 -63 35 29 131 308 113 327 -14 13 -60 3 -78 -17z"/>
<path d="M1803 1406 c-77 -84 -162 -261 -148 -306 9 -29 50 -26 78 6 20 24 67
54 83 54 3 0 3 -12 0 -26 -11 -41 25 -69 61 -46 6 4 23 74 38 156 25 140 25
150 10 182 -25 53 -61 47 -122 -20z m29 -144 c-2 -25 -10 -46 -19 -49 -24 -9
-24 2 -3 52 11 26 22 46 24 44 1 -2 1 -23 -2 -47z"/>
<path d="M2100 1453 c-50 -6 -83 -34 -118 -100 -39 -74 -54 -155 -39 -202 26
-75 114 -98 181 -47 89 68 139 281 80 340 -15 16 -33 17 -104 9z m6 -217 c-9
-29 -25 -65 -38 -81 -19 -25 -23 -26 -34 -11 -17 24 -1 75 44 151 l37 60 3
-33 c2 -18 -4 -56 -12 -86z"/>
<path d="M1627 1428 c-15 -13 -35 -45 -46 -73 -19 -50 -19 -50 -26 -20 -19 87
-52 117 -88 78 -38 -43 -110 -294 -89 -315 24 -24 60 1 89 59 20 42 29 52 31
38 13 -78 23 -95 51 -95 40 0 53 20 101 150 50 133 57 193 24 198 -12 2 -33
-7 -47 -20z"/>
<path d="M612 992 c-39 -15 -46 -23 -64 -72 -11 -30 -28 -78 -39 -107 -26 -72
-35 -156 -17 -170 14 -12 60 -18 114 -15 45 3 78 32 70 60 -6 18 -15 22 -52
22 -24 0 -44 4 -44 10 0 24 25 60 42 60 21 0 68 42 68 61 0 7 -10 9 -30 6 -24
-5 -30 -3 -30 11 0 29 22 50 65 64 45 15 72 61 45 78 -23 15 -80 11 -128 -8z"/>
<path d="M1183 1000 c-47 -11 -80 -35 -116 -86 -43 -60 -55 -98 -56 -165 -1
-66 22 -104 70 -114 70 -16 150 24 142 69 -6 31 -24 38 -61 24 -64 -24 -80 44
-29 119 25 37 66 60 71 40 12 -40 17 -47 29 -47 8 0 26 9 41 21 21 16 26 29
26 63 0 64 -44 93 -117 76z"/>
<path d="M1440 1001 c-54 -11 -75 -26 -108 -78 -62 -98 -79 -217 -37 -262 47
-53 125 -51 179 4 80 80 120 243 77 313 -22 34 -38 37 -111 23z m4 -214 c-18
-55 -49 -107 -64 -107 -19 0 -21 48 -5 86 9 21 30 61 48 89 l32 50 3 -33 c2
-18 -4 -56 -14 -85z"/>
<path d="M1978 995 c-60 -22 -88 -45 -88 -72 0 -16 7 -27 20 -30 11 -3 20 -6
20 -8 0 -1 -14 -55 -31 -119 -32 -123 -30 -146 11 -146 30 0 49 34 94 161 35
99 48 125 65 129 30 7 66 67 50 86 -15 18 -91 17 -141 -1z"/>
<path d="M2230 999 c-56 -23 -98 -92 -144 -237 -31 -100 -32 -108 -5 -122 23
-13 69 -5 69 11 0 5 7 26 15 47 l16 37 22 -40 c25 -43 77 -66 103 -44 11 9 15
8 20 -5 10 -25 61 -20 79 7 14 23 54 47 76 47 5 0 7 -11 3 -26 -11 -45 59 -65
75 -21 19 50 52 290 41 301 -5 5 -10 18 -10 28 0 22 -41 33 -69 18 -47 -24
-141 -167 -176 -265 -10 -27 -21 -53 -24 -56 -3 -4 -20 15 -38 41 l-32 48 36
23 c20 13 44 40 55 59 24 46 24 121 0 143 -20 19 -73 21 -112 6z m41 -102 c-6
-14 -20 -31 -31 -37 -20 -11 -21 -10 -15 12 4 12 14 34 22 47 20 30 38 14 24
-22z m230 -87 c-4 -31 -11 -46 -23 -48 -16 -3 -17 0 -3 38 26 75 36 79 26 10z"/>
<path d="M2686 987 c-14 -15 -26 -33 -26 -41 0 -8 -13 -55 -30 -104 -35 -105
-39 -180 -12 -205 23 -21 46 -22 62 -2 7 8 25 15 40 15 64 0 144 93 156 181 8
59 -14 108 -64 143 -58 40 -95 44 -126 13z m91 -109 c27 -25 29 -59 7 -96 -19
-31 -72 -77 -80 -69 -6 6 37 187 44 187 3 0 16 -10 29 -22z"/>
<path d="M3005 957 c-62 -64 -158 -248 -153 -293 2 -24 8 -29 35 -32 23 -2 34
2 42 16 6 11 26 29 45 40 l35 21 3 -37 c3 -34 6 -37 36 -40 20 -2 34 2 37 10
15 41 52 304 44 313 -5 5 -9 17 -9 26 0 17 -19 29 -48 29 -9 0 -39 -24 -67
-53z m24 -139 c-4 -24 -8 -46 -9 -50 0 -5 -7 -8 -16 -8 -17 0 -13 22 13 73 19
37 22 34 12 -15z"/>
<path d="M990 993 c-29 -11 -51 -38 -72 -86 l-21 -49 -19 61 c-21 68 -39 77
-76 38 -24 -26 -44 -77 -72 -189 -27 -104 -26 -128 3 -128 30 0 50 22 75 80
l20 45 7 -40 c11 -61 22 -75 55 -75 38 0 48 17 98 160 50 145 56 176 36 184
-9 3 -16 6 -17 5 -1 0 -9 -3 -17 -6z"/>
<path d="M1814 986 c-23 -10 -36 -27 -54 -71 l-23 -57 -16 52 c-34 111 -83 84
-131 -69 -17 -53 -33 -120 -37 -148 -6 -51 -5 -53 19 -53 32 0 54 25 77 85
l18 47 12 -61 c12 -60 12 -61 46 -61 30 0 37 5 55 41 25 47 85 219 93 266 5
23 2 33 -9 37 -9 3 -16 6 -17 6 -1 -1 -16 -7 -33 -14z"/>
</g>
</svg>
